PathFileType	4	(X/Y/Z)	Patient4_TMGait_0pt5_02_left_27.trc.trc
DataRate	CameraRate	NumFrames	NumMarkers	Units	OrigDataRate	OrigDataStartFrame	OrigNumFrames
74.866310160428	74.866310160428	5	33	mm	74.866310160428	106	       141
Frame#	Time	Sacral			L.Shoulder			Chest			R.Shoulder			Neck			R.ASIS			L.ASIS			R.Thigh.Superior			R.Thigh.Lateral			R.Thigh.Inferior			R.Patella			L.Thigh.Superior			L.Thigh.Lateral			L.Thigh.Inferior			L.Patella			L.Shank.Superior			L.Shank.Lateral			L.Shank.Inferior			R.Shank.Superior			R.Shank.Lateral			R.Shank.Inferior			R.Heel			R.Midfoot.Superior			R.Midfoot.Lateral			R.Toe			L.Heel			L.Midfoot.Lateral			L.Midfoot.Superior			L.Toe			L.Elbow			L.Wrist			R.Elbow			R.Wrist			
		X1	Y1	Z1	X2	Y2	Z2	X3	Y3	Z3	X4	Y4	Z4	X5	Y5	Z5	X6	Y6	Z6	X7	Y7	Z7	X8	Y8	Z8	X9	Y9	Z9	X10	Y10	Z10	X11	Y11	Z11	X12	Y12	Z12	X13	Y13	Z13	X14	Y14	Z14	X15	Y15	Z15	X16	Y16	Z16	X17	Y17	Z17	X18	Y18	Z18	X19	Y19	Z19	X20	Y20	Z20	X21	Y21	Z21	X22	Y22	Z22	X23	Y23	Z23	X24	Y24	Z24	X25	Y25	Z25	X26	Y26	Z26	X27	Y27	Z27	X28	Y28	Z28	X29	Y29	Z29	X30	Y30	Z30	X31	Y31	Z31	X32	Y32	Z32	X33	Y33	Z33	

106	35.872500000000	650.077711201302	1009.628356144202	505.989353729968	828.556260104542	1436.339263198428	327.892646233356	932.841941866252	1365.828913510148	487.828905379337	851.398255399477	1438.648306521475	663.912256763793	828.453719942620	1496.354969563974	480.160115956386	876.824439162300	942.947680205097	622.861402241010	862.765528840696	964.655575818991	349.774080167541	909.393483390665	738.041267067572	592.726327716004	820.406209471672	633.263587102725	647.494624367187	895.941657641840	577.173218857916	568.823206973169	890.278061804043	488.918807386985	571.114937265345	951.622879864147	791.700170501031	381.589247427214	921.314193622229	665.990494754781	297.884994621873	1026.894065633104	610.810029552806	362.146899136658	1048.886273700129	523.024608172466	354.944810301987	992.211165689753	449.050077980395	344.918087610938	861.642291036174	387.582282722771	288.464589295266	865.108822576417	257.751569016976	343.167762254811	859.431278058256	402.051803861199	576.259236226447	783.269134458548	300.356348229409	633.920640715284	822.406121573161	205.172757644457	569.846536195001	681.775249459481	43.676371159340	533.287755106734	852.762109476611	97.151232163187	575.986659370220	762.488965708355	36.802800332644	611.570795388306	971.032991068336	42.086467519252	608.771198101928	684.160994591227	174.465681609878	371.850050300364	747.876154254233	131.893575062371	295.282997656575	850.520843910112	148.357559022470	320.366279039602	936.864986680292	42.083641699319	298.798896671598	770.677333134817	1081.328492436738	223.081733834497	802.044055083638	822.656814144445	218.677072072350	888.926688980484	1102.689213738389	799.458234433379	1124.665859285043	1013.943367704819	751.415796838862	
107	35.885857142857	648.993786610374	1010.704369916060	507.572815162835	827.477421033429	1436.664543530966	328.376888687391	933.248892143449	1365.609902242440	487.018863064023	854.232999872787	1438.902797679347	663.979011599337	829.126431202381	1496.536007021572	480.468669690637	876.244082377779	942.722748399764	622.546782549291	860.289694671410	965.322595491479	349.577999503759	905.888719314324	737.131683028710	591.559104392142	816.482855755748	633.213641432690	647.446016565424	890.482720672814	576.414887857897	568.011936959292	884.033352582305	488.528944499470	570.475414297356	950.068549221320	794.399724689760	382.111025309681	921.422561440690	668.245909508088	298.148076246439	1026.987636531106	614.115817545878	362.829872897995	1050.843907727138	527.918528173046	355.498279361401	998.316434376846	452.547254862697	345.057873705513	872.701995130623	382.728906833992	288.041119196559	885.038305130218	253.329654501839	342.598121823368	853.073647869833	401.814270916047	575.975482937148	776.825569060118	300.280848651904	633.829769992077	815.725385939957	205.053090015955	569.732240616215	674.972685328210	43.536377360776	533.337346474063	845.880178395949	97.092781982398	575.893248770162	755.666856695939	36.759479897383	611.636363698697	964.170590041170	42.287233427765	608.764908935560	710.773174980461	156.706556687268	370.870166191643	777.511487391593	119.841850221539	294.073740083361	878.423169642462	143.874979999019	319.393084249795	972.527895349410	45.152109809744	297.261372752134	762.169845154648	1083.036597575859	223.653076462736	787.551387210558	823.757445922715	220.659313542941	898.753489928726	1104.620544828161	799.875935771519	1138.134869692508	1031.104301566834	747.850631576759	
108	35.899214285714	648.047853044548	1011.636013405915	509.078385980766	826.447936949578	1436.888929585989	328.768209953493	933.698399998160	1365.261664472143	486.085644822603	857.124484065820	1438.998692759854	663.915610017429	829.829380146032	1496.602387617441	480.675282071953	875.772690161022	942.398646661313	622.102291889188	857.928712876811	965.827161908340	349.237464340693	902.493552685617	736.188870451684	590.322879558968	812.688568753170	633.115483191020	647.388888457282	885.103460235519	575.629414813274	567.183898618364	877.872063646768	488.113021032338	569.867198723533	948.133559067501	796.340684704929	382.411017399941	920.731489478469	669.824534138263	298.219156238954	1025.926195965941	616.355375806789	363.516635467027	1051.471980267512	532.052713242783	356.041807217093	1003.391658858788	455.637236330929	345.144495468089	883.754013800725	377.245919107309	287.411007063090	905.385457051832	248.968233597658	342.019663621753	846.800634204746	401.528366640062	575.692356182387	770.453169463126	300.165236507183	633.742886367746	809.056261138893	204.892508260233	569.610824134116	668.180984183546	43.389153973534	533.403585807490	838.975031256810	97.013296100525	575.772116693877	748.847040398188	36.708862162822	611.695929848260	957.311720461024	42.475357604059	608.744157375524	739.174281527605	138.824063806784	369.714863321566	808.800752671154	108.048383135705	292.891952698866	907.257701126493	139.894282639411	318.597699905809	1008.969428213647	49.563275529085	296.291267937760	753.791391315620	1084.825180859316	224.098271981259	773.839783048409	825.105428348197	222.555653330950	908.467102657089	1106.444428573362	799.877440688218	1150.391973303388	1048.069395574568	743.820465697957	
109	35.912571428571	647.254401650026	1012.378538644899	510.497741901024	825.471089263945	1436.989708462873	329.044937903073	934.168440669128	1364.785107312230	485.038209714111	859.998841163439	1438.928124795356	663.711086198853	830.546366788657	1496.539027058088	480.762923260907	875.435462291068	941.972927925086	621.528551897496	855.720354862906	966.133593666514	348.754837064440	899.309339279657	735.221850491082	589.083671952239	809.103658216596	632.958597567035	647.328357982041	879.932957110055	574.816158624628	566.382009476338	871.920524859617	487.652469642778	569.307400054564	945.850983837075	797.450781604270	382.497001790875	919.280188617112	670.689170673584	298.073065564910	1023.773858407589	617.486767491094	364.192097073672	1050.840287830078	535.371363013443	356.568489241240	1007.415306730598	458.313527468873	345.178101638518	894.719942357696	371.384602422410	286.595744637650	925.814912426971	244.991304315267	341.485003479349	840.712578924139	401.179670527079	575.412475270370	764.229315265104	300.012061654415	633.664506686986	802.449517366656	204.684682639359	569.481524434617	661.400169616480	43.245538158776	533.484826671693	832.061276891770	96.916097199534	575.631441652489	742.034968497398	36.654727845343	611.749988543080	950.465398399169	42.638722522507	608.714588612551	768.942778446924	121.542908735364	368.462699416846	841.237923343923	97.089478524134	291.835180787974	936.493188865921	136.798521870488	318.056627132129	1045.407380653846	55.553422703659	296.016622666231	745.640676242694	1086.627004017458	224.473768898940	760.889660855067	826.588474607593	224.356695137664	918.052011755308	1108.139418967892	799.450841363321	1161.473192485622	1064.654564939441	739.359902879663	
110	35.925928571429	646.624816993307	1012.901953575933	511.815530452848	824.549513353656	1436.954609468529	329.185396649921	934.638592487943	1364.193057771196	483.884722735588	862.783240556358	1438.697675934383	663.353792397226	831.259993125460	1496.340414507648	480.713912462325	875.256491491048	941.453107683964	620.828034438754	853.699569956613	966.219981394493	348.135754623715	896.421617570851	734.237938064538	587.896168658110	805.791732188596	632.736017585837	647.261008734436	875.078466502301	573.974836948431	565.636066760585	866.282148003025	487.131120487474	568.800253451154	943.270278305280	797.700780712277	382.375058145986	917.128785657236	670.841546476842	297.688774981572	1020.645750515906	617.532608623185	364.813706923224	1049.067709796307	537.863220902214	357.053315844313	1010.403899857293	460.580280823165	345.147567171730	905.467054886036	365.391812068645	285.646479943004	945.946287279719	241.657364683673	341.045230540114	834.889002466748	400.758892209623	575.132614497130	758.215594669465	299.826574481142	633.593668623502	795.947038334175	204.426515599011	569.341700455772	654.630098200337	43.115358384489	533.577561821475	825.153896286620	96.806508886739	575.480925452523	735.234989555197	36.601044645148	611.799070841230	943.639346976593	42.767952210515	608.681492618613	799.513278114382	105.491221115631	367.240859026481	874.183119965641	87.421283862722	291.016157692819	965.532714389577	134.858628643044	317.824312636795	1081.037639195073	63.204526422864	296.486557607801	737.809203157235	1088.382575056461	224.823813808016	748.683266417347	828.115988272883	226.051593986157	927.480612669477	1109.701597655693	798.584852488764	1171.426814065556	1080.690164407647	734.509096705291	
